# xmcd
#
# Track frame offsets:
#	150
#	14631
#	29406
#	43597
#	57425
#	78258
#	93593
#	106451
#	141169
#	152722
#	165822
#	181104
#
# Disc length: 2541 seconds
#
# Revision: 1
# Processed by: cddbd v1.4PL0 Copyright (c) Steve Scherf et al.
# Submitted via: audiograbber 1.82.02
#
DISCID=9209eb0c
DTITLE=Truck Stop - Hello Mary Lou
DYEAR=1900
DGENRE=Country
TTITLE0=Alabama Princess
TTITLE1=Highway 59
TTITLE2=I Take A Lot Of Pride In What I Am
TTITLE3=Jackson
TTITLE4=Sunday Morning Comin' Down
TTITLE5=Hello, Mary Lou
TTITLE6=Ring Of Fire
TTITLE7=Truck Stop Blues
TTITLE8=Square Dance
TTITLE9=Hello Josephine
TTITLE10=Goin' Up To Washington
TTITLE11=Foggy Mountain Breakdown
EXTD=
EXTT0=
EXTT1=
EXTT2=
EXTT3=
EXTT4=
EXTT5=
EXTT6=
EXTT7=
EXTT8=
EXTT9=
EXTT10=
EXTT11=
PLAYORDER=
